<?xml version="1.0" encoding="utf-8"?>
<!-- Generator: Adobe Illustrator 28.0.0, SVG Export Plug-In . SVG Version: 6.00 Build 0)  -->
<svg version="1.1" id="Layer_1" xmlns="http://www.w3.org/2000/svg" xmlns:xlink="http://www.w3.org/1999/xlink" x="0px" y="0px"
	 viewBox="0 0 177 82" style="enable-background:new 0 0 177 82;" xml:space="preserve">
<style type="text/css">
	.st0{fill:#FFFFFF;}
</style>
<g>
	<g>
		<g>
			<g>
				<g>
					<g>
						<polygon class="st0" points="50.2,40.1 29.8,51.9 12.6,41.9 32.9,30.1 						"/>
						<g>
							<polygon class="st0" points="50.2,16.6 9.5,40.1 9.5,16.6 29.8,4.8 							"/>
						</g>
					</g>
				</g>
			</g>
		</g>
		<g>
			<path class="st0" d="M74.4,48.1c-12.1,0-18.2-6.4-18.2-19.1c0-6.8,1.5-11.8,4.6-14.9s7.6-4.6,13.6-4.6S84.9,11,88,14.1
				s4.6,8,4.6,14.9C92.5,41.7,86.5,48.1,74.4,48.1z M74.4,41.4c3.5,0,6.1-1,7.7-3s2.5-5.2,2.5-9.4c0-4.7-0.8-8-2.5-9.9
				c-1.6-1.9-4.2-2.9-7.7-2.9s-6.1,1-7.7,2.9C65,21,64.2,24.3,64.2,29c0,4.2,0.8,7.3,2.5,9.4C68.3,40.4,70.9,41.4,74.4,41.4z"/>
			<path class="st0" d="M100.3,47.5V10.1H116c5.6,0,9.8,1.4,12.7,4.3c2.8,2.9,4.3,7.7,4.3,14.5c0,6.4-1.4,11.1-4.2,14.1
				s-7.1,4.4-12.7,4.4L100.3,47.5L100.3,47.5z M108.2,41.5h6.7c2.2,0,4.1-0.3,5.6-1s2.6-1.9,3.4-3.7s1.1-4.4,1.1-7.7s-0.3-5.9-1-7.7
				c-0.7-1.8-1.8-3-3.3-3.7s-3.4-1-5.8-1h-6.7C108.2,16.7,108.2,41.5,108.2,41.5z"/>
			<path class="st0" d="M140.7,47.5V10.1h26.8v6.1h-19v9.6h16.8v6h-16.8v9.6h19v6L140.7,47.5L140.7,47.5z"/>
		</g>
	</g>
	<g>
		<g>
			<path class="st0" d="M18.5,76.9V60.2H27c1.7,0,2.9,0.4,3.8,1.2c0.8,0.8,1.2,1.9,1.2,3.3c0,0.9-0.2,1.6-0.5,2.2s-0.8,1.1-1.4,1.4
				c0.8,0.2,1.4,0.6,1.9,1.2s0.7,1.4,0.7,2.5c0,1.6-0.5,2.8-1.4,3.6c-0.9,0.8-2.2,1.2-3.9,1.2h-8.9V76.9z M22,67.1h4.3
				c0.8,0,1.5-0.2,1.8-0.6s0.5-0.9,0.5-1.6s-0.2-1.3-0.6-1.7c-0.3-0.2-1-0.4-2-0.4h-4V67.1z M22,74.3h4.4c0.9,0,1.5-0.2,1.9-0.5
				c0.4-0.4,0.6-1,0.6-1.9c0-0.7-0.2-1.3-0.6-1.7c-0.4-0.4-1.1-0.5-2.2-0.5H22V74.3z"/>
			<path class="st0" d="M45.5,76.9l6.4-16.7h3.8l6.4,16.7h-3.6l-1.6-4h-6.2l-1.6,4H45.5z M51.3,70.2h5.1l-2.6-6.7L51.3,70.2z"/>
			<path class="st0" d="M80.5,77.2c-1.1,0-2.1-0.1-3-0.2c-0.9-0.2-1.7-0.4-2.4-0.7v-3.1c0.8,0.3,1.6,0.6,2.5,0.8
				c0.9,0.2,1.7,0.3,2.6,0.3c1.2,0,2.1-0.1,2.7-0.3c0.6-0.2,0.9-0.7,0.9-1.5c0-0.5-0.1-0.9-0.4-1.2s-0.7-0.6-1.3-0.8
				c-0.6-0.2-1.4-0.5-2.5-0.8c-1.7-0.5-3-1.1-3.7-1.8c-0.7-0.7-1.1-1.7-1.1-3c0-1.5,0.6-2.7,1.7-3.6c1.1-0.8,2.8-1.2,4.9-1.2
				c1,0,1.9,0.1,2.8,0.2c0.9,0.1,1.6,0.3,2.1,0.5v3.1c-1.4-0.5-2.9-0.8-4.4-0.8c-1.1,0-1.9,0.1-2.6,0.4c-0.6,0.2-0.9,0.7-0.9,1.5
				c0,0.4,0.1,0.8,0.3,1c0.2,0.3,0.6,0.5,1.2,0.7c0.5,0.2,1.3,0.4,2.3,0.7c1.4,0.4,2.4,0.8,3.2,1.3c0.7,0.5,1.3,1.1,1.5,1.7
				c0.3,0.6,0.4,1.4,0.4,2.2c0,1.5-0.6,2.6-1.7,3.5C84.5,76.7,82.8,77.2,80.5,77.2z"/>
			<path class="st0" d="M101.7,76.9V60.2h3.5v16.7H101.7z"/>
			<path class="st0" d="M128.3,77.2c-2.8,0-5-0.8-6.4-2.3c-1.5-1.5-2.2-3.6-2.2-6.2c0-2.8,0.7-4.9,2.2-6.5c1.4-1.5,3.6-2.3,6.5-2.3
				c1,0,1.9,0.1,2.7,0.2c0.8,0.1,1.6,0.4,2.3,0.6v3.1c-1.5-0.6-3-0.9-4.7-0.9c-1.9,0-3.3,0.5-4.1,1.4c-0.8,1-1.2,2.4-1.2,4.4
				c0,3.7,1.8,5.5,5.4,5.5c0.8,0,1.6-0.1,2.4-0.2c0.8-0.1,1.6-0.4,2.3-0.7v3.1c-0.7,0.2-1.5,0.4-2.3,0.5
				C130.2,77.1,129.3,77.2,128.3,77.2z"/>
			<path class="st0" d="M152.8,77.2c-1.1,0-2.1-0.1-3-0.2c-0.9-0.2-1.7-0.4-2.4-0.7v-3.1c0.8,0.3,1.6,0.6,2.5,0.8s1.7,0.3,2.6,0.3
				c1.2,0,2.1-0.1,2.7-0.3c0.6-0.2,0.9-0.7,0.9-1.5c0-0.5-0.1-0.9-0.4-1.2s-0.7-0.6-1.3-0.8c-0.6-0.2-1.4-0.5-2.5-0.8
				c-1.7-0.5-3-1.1-3.7-1.8c-0.7-0.7-1.1-1.7-1.1-3c0-1.5,0.6-2.7,1.7-3.6c1.1-0.8,2.8-1.2,4.9-1.2c1,0,1.9,0.1,2.8,0.2
				c0.9,0.1,1.6,0.3,2.1,0.5v3.1c-1.4-0.5-2.9-0.8-4.4-0.8c-1.1,0-1.9,0.1-2.6,0.4c-0.6,0.2-0.9,0.7-0.9,1.5c0,0.4,0.1,0.8,0.3,1
				c0.2,0.3,0.6,0.5,1.2,0.7c0.5,0.2,1.3,0.4,2.3,0.7c1.4,0.4,2.4,0.8,3.2,1.3c0.7,0.5,1.3,1.1,1.5,1.7c0.3,0.6,0.4,1.4,0.4,2.2
				c0,1.5-0.6,2.6-1.7,3.5C156.8,76.7,155.1,77.2,152.8,77.2z"/>
		</g>
	</g>
</g>
</svg>
